<svg width="204" height="54" viewBox="0 0 204 54" fill="none" xmlns="http://www.w3.org/2000/svg">
<path d="M20.9494 32.8571C20.9381 31.4107 20.5755 29.9918 19.8969 28.7384C19.2183 27.485 18.2467 26.4395 17.0764 25.7034L29 3.71429L26.2128 2L14.0057 24.5017C12.5076 24.1456 10.9494 24.1948 9.47379 24.645C7.99815 25.0951 6.65213 25.9317 5.55883 27.0783C-0.473039 33.2686 -0.00582592 47.7406 0.0167292 48.3543C0.033383 48.797 0.210445 49.2156 0.510795 49.5224C0.811144 49.8292 1.21146 50.0004 1.62781 50H25.7795C26.1176 50 26.4472 49.8868 26.7215 49.6764C26.9958 49.466 27.2009 49.1692 27.3079 48.8278C27.4148 48.4865 27.4181 48.118 27.3173 47.7746C27.2164 47.4311 27.0166 47.1302 26.7461 46.9143C21.0429 42.3611 20.9494 32.9497 20.9494 32.8571ZM12.7765 27.7091C14.0659 27.7242 15.3003 28.2677 16.2227 29.2266C17.1451 30.1854 17.6846 31.4858 17.7289 32.8571C17.7289 32.9223 17.7321 33.2137 17.7563 33.6611L8.25094 29.1629C8.87707 28.6135 9.5996 28.202 10.3765 27.9525C11.1534 27.7029 11.9692 27.6202 12.7765 27.7091ZM18.4474 46.5714C17.1597 45.1762 16.3389 43.3691 16.1114 41.4286H12.8892C13.0046 43.253 13.5402 45.0193 14.4488 46.5714H10.8673C10.2048 44.3467 9.80167 42.0437 9.66708 39.7143H6.44492C6.54882 42.0367 6.9084 44.3382 7.51629 46.5714H3.22277C3.27272 43.424 3.68998 36.4709 6.12754 31.9091L18.2638 37.652C18.8469 40.8737 20.09 43.919 21.9048 46.5714H18.4474Z" fill="#36B864"/>
<path d="M45.7164 12.5C47.1164 12.5 48.2914 12.7833 49.2414 13.35C50.1914 13.9167 50.8914 14.6583 51.3414 15.575C51.7914 16.4917 52.0164 17.475 52.0164 18.525C52.0164 19.575 51.7914 20.55 51.3414 21.45C50.9081 22.3333 50.2164 23.05 49.2664 23.6C48.3164 24.15 47.1331 24.425 45.7164 24.425H42.6414V30H39.2414V12.5H45.7164ZM45.1914 21.575C46.1747 21.575 46.9997 21.3417 47.6664 20.875C48.3331 20.4083 48.6664 19.625 48.6664 18.525C48.6664 17.425 48.3331 16.6583 47.6664 16.225C47.0164 15.775 46.1914 15.55 45.1914 15.55H42.6414V21.575H45.1914ZM54.2828 16.8H57.7078V18.9H57.8828C58.0995 18.3167 58.4995 17.825 59.0828 17.425C59.6661 17.0083 60.4161 16.8 61.3328 16.8C61.6828 16.8 61.9828 16.8333 62.2328 16.9L62.0828 20.075C61.6661 19.9583 61.2245 19.9 60.7578 19.9C59.7245 19.9 58.9578 20.175 58.4578 20.725C57.9578 21.2583 57.7078 22.15 57.7078 23.4V30H54.2828V16.8ZM69.6775 30.2C68.2942 30.2 67.1275 29.8917 66.1775 29.275C65.2442 28.6417 64.5442 27.8083 64.0775 26.775C63.6109 25.7417 63.3775 24.6083 63.3775 23.375C63.3775 22.1417 63.6025 21.0083 64.0525 19.975C64.5192 18.925 65.2275 18.0833 66.1775 17.45C67.1275 16.8167 68.2942 16.5 69.6775 16.5C71.0609 16.5 72.2275 16.8167 73.1775 17.45C74.1275 18.0667 74.8359 18.8917 75.3025 19.925C75.7692 20.9583 76.0025 22.0917 76.0025 23.325C76.0025 24.5583 75.7692 25.7 75.3025 26.75C74.8359 27.7833 74.1275 28.6167 73.1775 29.25C72.2275 29.8833 71.0609 30.2 69.6775 30.2ZM69.6775 27.4C70.6442 27.4 71.3692 27.0167 71.8525 26.25C72.3525 25.4667 72.6025 24.4917 72.6025 23.325C72.6025 22.1583 72.3525 21.2 71.8525 20.45C71.3692 19.6833 70.6442 19.3 69.6775 19.3C68.7109 19.3 67.9859 19.6833 67.5025 20.45C67.0192 21.2 66.7775 22.1583 66.7775 23.325C66.7775 24.4917 67.0192 25.4667 67.5025 26.25C68.0025 27.0167 68.7275 27.4 69.6775 27.4Z" fill="#36B864"/>
<path d="M85.9771 30.2C84.3105 30.2 82.8771 29.7917 81.6771 28.975C80.4771 28.1583 79.5605 27.0667 78.9271 25.7C78.3105 24.3167 78.0021 22.8083 78.0021 21.175C78.0021 19.525 78.3105 18.0167 78.9271 16.65C79.5605 15.2833 80.4771 14.1917 81.6771 13.375C82.8771 12.5583 84.3105 12.15 85.9771 12.15C88.0105 12.15 89.6771 12.7333 90.9771 13.9C92.2771 15.0667 93.1271 16.6 93.5271 18.5H90.1771C89.9438 17.5333 89.4521 16.7417 88.7021 16.125C87.9688 15.4917 87.0771 15.175 86.0271 15.175C84.5771 15.175 83.4771 15.725 82.7271 16.825C81.9771 17.925 81.6021 19.375 81.6021 21.175C81.6021 22.975 81.9771 24.425 82.7271 25.525C83.4771 26.625 84.5771 27.175 86.0271 27.175C87.0605 27.175 87.9271 26.8833 88.6271 26.3C89.3271 25.7 89.8105 24.9583 90.0771 24.075H93.4271C93.0271 25.875 92.1855 27.35 90.9021 28.5C89.6188 29.6333 87.9771 30.2 85.9771 30.2ZM100.083 30.1C98.8493 30.1 97.9326 29.9167 97.3326 29.55C96.7493 29.1667 96.3826 28.7 96.2326 28.15C96.0993 27.5833 96.0326 26.8667 96.0326 26V11.25H99.4826V25.3C99.4826 25.9 99.5076 26.35 99.5576 26.65C99.6243 26.9333 99.791 27.1667 100.058 27.35C100.341 27.5167 100.783 27.6 101.383 27.6C101.583 27.6 101.816 27.5833 102.083 27.55V29.95C101.233 30.05 100.566 30.1 100.083 30.1ZM110.278 30.2C108.895 30.2 107.728 29.8833 106.778 29.25C105.828 28.6 105.12 27.7583 104.653 26.725C104.203 25.675 103.978 24.55 103.978 23.35C103.978 22.15 104.203 21.0333 104.653 20C105.12 18.95 105.828 18.1 106.778 17.45C107.728 16.8 108.903 16.475 110.303 16.475C112.153 16.475 113.62 17.0667 114.703 18.25C115.803 19.4333 116.353 21.1417 116.353 23.375V24.325H107.303V24.525C107.303 25.325 107.578 26.0167 108.128 26.6C108.678 27.1667 109.37 27.45 110.203 27.45C110.853 27.45 111.403 27.3 111.853 27C112.303 26.7 112.628 26.2917 112.828 25.775H116.228C115.878 27.075 115.195 28.1417 114.178 28.975C113.161 29.7917 111.861 30.2 110.278 30.2ZM113.028 22.075C112.995 21.025 112.728 20.25 112.228 19.75C111.728 19.25 111.07 19 110.253 19C109.386 19 108.703 19.275 108.203 19.825C107.703 20.375 107.436 21.125 107.403 22.075H113.028ZM123.457 30.2C121.824 30.2 120.549 29.575 119.632 28.325C118.716 27.075 118.257 25.425 118.257 23.375C118.257 21.2917 118.716 19.625 119.632 18.375C120.566 17.1083 121.866 16.475 123.532 16.475C124.649 16.475 125.524 16.7333 126.157 17.25C126.791 17.75 127.241 18.2833 127.507 18.85H127.707V16.8H131.182V30H127.707V27.725H127.507C127.207 28.3417 126.741 28.9083 126.107 29.425C125.474 29.9417 124.591 30.2 123.457 30.2ZM124.732 27.4C125.716 27.4 126.457 27 126.957 26.2C127.457 25.4 127.707 24.4417 127.707 23.325C127.707 22.2083 127.457 21.2583 126.957 20.475C126.474 19.6917 125.732 19.3 124.732 19.3C123.732 19.3 122.991 19.6917 122.507 20.475C122.024 21.2583 121.782 22.2083 121.782 23.325C121.782 24.4583 122.024 25.425 122.507 26.225C122.991 27.0083 123.732 27.4 124.732 27.4ZM134.212 16.8H137.712V18.825H137.887C138.187 18.175 138.67 17.625 139.337 17.175C140.004 16.7083 140.812 16.475 141.762 16.475C143.479 16.475 144.687 17.025 145.387 18.125C146.104 19.225 146.462 20.475 146.462 21.875V30H143.012V22.45C143.012 21.4833 142.779 20.725 142.312 20.175C141.862 19.625 141.22 19.35 140.387 19.35C139.504 19.35 138.837 19.6417 138.387 20.225C137.937 20.7917 137.712 21.5333 137.712 22.45V30H134.212V16.8ZM149.627 16.8H153.077V30H149.627V16.8ZM151.327 14.525C150.777 14.525 150.318 14.3417 149.952 13.975C149.585 13.5917 149.402 13.1333 149.402 12.6C149.402 12.05 149.585 11.5917 149.952 11.225C150.318 10.8583 150.777 10.675 151.327 10.675C151.877 10.675 152.335 10.8667 152.702 11.25C153.068 11.6167 153.252 12.0667 153.252 12.6C153.252 13.1333 153.068 13.5917 152.702 13.975C152.335 14.3417 151.877 14.525 151.327 14.525ZM156.502 16.8H160.002V18.825H160.177C160.477 18.175 160.96 17.625 161.627 17.175C162.294 16.7083 163.102 16.475 164.052 16.475C165.769 16.475 166.977 17.025 167.677 18.125C168.394 19.225 168.752 20.475 168.752 21.875V30H165.302V22.45C165.302 21.4833 165.069 20.725 164.602 20.175C164.152 19.625 163.51 19.35 162.677 19.35C161.794 19.35 161.127 19.6417 160.677 20.225C160.227 20.7917 160.002 21.5333 160.002 22.45V30H156.502V16.8ZM177.891 35.55C177.274 35.55 176.807 35.5083 176.491 35.425C176.174 35.3583 175.857 35.2667 175.541 35.15V32.375C175.707 32.425 175.974 32.475 176.341 32.525C176.724 32.5917 177.091 32.625 177.441 32.625C178.607 32.625 179.424 32.2917 179.891 31.625C180.374 30.975 180.616 30.1583 180.616 29.175V27.425H180.416C180.149 28.025 179.682 28.5833 179.016 29.1C178.349 29.6167 177.466 29.875 176.366 29.875C175.299 29.875 174.374 29.6 173.591 29.05C172.807 28.4833 172.207 27.7 171.791 26.7C171.374 25.6833 171.166 24.5167 171.166 23.2C171.166 21.85 171.374 20.675 171.791 19.675C172.207 18.6583 172.807 17.875 173.591 17.325C174.391 16.7583 175.324 16.475 176.391 16.475C177.507 16.475 178.399 16.75 179.066 17.3C179.732 17.8333 180.182 18.4 180.416 19H180.616V16.8H184.091V29.175C184.091 30.025 183.932 30.925 183.616 31.875C183.316 32.8417 182.707 33.6917 181.791 34.425C180.874 35.175 179.574 35.55 177.891 35.55ZM177.666 27.075C178.632 27.075 179.366 26.6833 179.866 25.9C180.366 25.1167 180.616 24.2 180.616 23.15C180.616 22.1167 180.366 21.2167 179.866 20.45C179.382 19.6667 178.649 19.275 177.666 19.275C176.682 19.275 175.941 19.6667 175.441 20.45C174.941 21.2167 174.691 22.1167 174.691 23.15C174.691 24.2 174.932 25.1167 175.416 25.9C175.916 26.6833 176.666 27.075 177.666 27.075Z" fill="white"/>
<path d="M42.1484 50.585C41.3484 50.585 40.6604 50.389 40.0844 49.997C39.5084 49.605 39.0684 49.081 38.7644 48.425C38.4684 47.761 38.3204 47.037 38.3204 46.253C38.3204 45.461 38.4684 44.737 38.7644 44.081C39.0684 43.425 39.5084 42.901 40.0844 42.509C40.6604 42.117 41.3484 41.921 42.1484 41.921C43.1244 41.921 43.9244 42.201 44.5484 42.761C45.1724 43.321 45.5804 44.057 45.7724 44.969H44.1644C44.0524 44.505 43.8164 44.125 43.4564 43.829C43.1044 43.525 42.6764 43.373 42.1724 43.373C41.4764 43.373 40.9484 43.637 40.5884 44.165C40.2284 44.693 40.0484 45.389 40.0484 46.253C40.0484 47.117 40.2284 47.813 40.5884 48.341C40.9484 48.869 41.4764 49.133 42.1724 49.133C42.6684 49.133 43.0844 48.993 43.4204 48.713C43.7564 48.425 43.9884 48.069 44.1164 47.645H45.7244C45.5324 48.509 45.1284 49.217 44.5124 49.769C43.8964 50.313 43.1084 50.585 42.1484 50.585ZM48.919 50.537C48.327 50.537 47.887 50.449 47.599 50.273C47.319 50.089 47.143 49.865 47.071 49.601C47.007 49.329 46.975 48.985 46.975 48.569V41.489H48.631V48.233C48.631 48.521 48.643 48.737 48.667 48.881C48.699 49.017 48.779 49.129 48.907 49.217C49.043 49.297 49.255 49.337 49.543 49.337C49.639 49.337 49.751 49.329 49.879 49.313V50.465C49.471 50.513 49.151 50.537 48.919 50.537ZM53.8129 50.585C53.1489 50.585 52.5889 50.433 52.1329 50.129C51.6769 49.817 51.3369 49.413 51.1129 48.917C50.8969 48.413 50.7889 47.873 50.7889 47.297C50.7889 46.721 50.8969 46.185 51.1129 45.689C51.3369 45.185 51.6769 44.777 52.1329 44.465C52.5889 44.153 53.1529 43.997 53.8249 43.997C54.7129 43.997 55.4169 44.281 55.9369 44.849C56.4649 45.417 56.7289 46.237 56.7289 47.309V47.765H52.3849V47.861C52.3849 48.245 52.5169 48.577 52.7809 48.857C53.0449 49.129 53.3769 49.265 53.7769 49.265C54.0889 49.265 54.3529 49.193 54.5689 49.049C54.7849 48.905 54.9409 48.709 55.0369 48.461H56.6689C56.5009 49.085 56.1729 49.597 55.6849 49.997C55.1969 50.389 54.5729 50.585 53.8129 50.585ZM55.1329 46.685C55.1169 46.181 54.9889 45.809 54.7489 45.569C54.5089 45.329 54.1929 45.209 53.8009 45.209C53.3849 45.209 53.0569 45.341 52.8169 45.605C52.5769 45.869 52.4489 46.229 52.4329 46.685H55.1329ZM60.1389 50.585C59.3549 50.585 58.7429 50.285 58.3029 49.685C57.8629 49.085 57.6429 48.293 57.6429 47.309C57.6429 46.309 57.8629 45.509 58.3029 44.909C58.7509 44.301 59.3749 43.997 60.1749 43.997C60.7109 43.997 61.1309 44.121 61.4349 44.369C61.7389 44.609 61.9549 44.865 62.0829 45.137H62.1789V44.153H63.8469V50.489H62.1789V49.397H62.0829C61.9389 49.693 61.7149 49.965 61.4109 50.213C61.1069 50.461 60.6829 50.585 60.1389 50.585ZM60.7509 49.241C61.2229 49.241 61.5789 49.049 61.8189 48.665C62.0589 48.281 62.1789 47.821 62.1789 47.285C62.1789 46.749 62.0589 46.293 61.8189 45.917C61.5869 45.541 61.2309 45.353 60.7509 45.353C60.2709 45.353 59.9149 45.541 59.6829 45.917C59.4509 46.293 59.3349 46.749 59.3349 47.285C59.3349 47.829 59.4509 48.293 59.6829 48.677C59.9149 49.053 60.2709 49.241 60.7509 49.241ZM65.3012 44.153H66.9812V45.125H67.0652C67.2092 44.813 67.4412 44.549 67.7612 44.333C68.0812 44.109 68.4692 43.997 68.9252 43.997C69.7492 43.997 70.3292 44.261 70.6652 44.789C71.0092 45.317 71.1812 45.917 71.1812 46.589V50.489H69.5252V46.865C69.5252 46.401 69.4132 46.037 69.1892 45.773C68.9732 45.509 68.6652 45.377 68.2652 45.377C67.8412 45.377 67.5212 45.517 67.3052 45.797C67.0892 46.069 66.9812 46.425 66.9812 46.865V50.489H65.3012V44.153ZM72.7002 44.153H74.3562V50.489H72.7002V44.153ZM73.5162 43.061C73.2522 43.061 73.0322 42.973 72.8562 42.797C72.6802 42.613 72.5922 42.393 72.5922 42.137C72.5922 41.873 72.6802 41.653 72.8562 41.477C73.0322 41.301 73.2522 41.213 73.5162 41.213C73.7802 41.213 74.0002 41.305 74.1762 41.489C74.3522 41.665 74.4402 41.881 74.4402 42.137C74.4402 42.393 74.3522 42.613 74.1762 42.797C74.0002 42.973 73.7802 43.061 73.5162 43.061ZM76.0004 44.153H77.6804V45.125H77.7644C77.9084 44.813 78.1404 44.549 78.4604 44.333C78.7804 44.109 79.1684 43.997 79.6244 43.997C80.4484 43.997 81.0284 44.261 81.3644 44.789C81.7084 45.317 81.8804 45.917 81.8804 46.589V50.489H80.2244V46.865C80.2244 46.401 80.1124 46.037 79.8884 45.773C79.6724 45.509 79.3644 45.377 78.9644 45.377C78.5404 45.377 78.2204 45.517 78.0044 45.797C77.7884 46.069 77.6804 46.425 77.6804 46.865V50.489H76.0004V44.153ZM86.2669 53.153C85.9709 53.153 85.7469 53.133 85.5949 53.093C85.4429 53.061 85.2909 53.017 85.1389 52.961V51.629C85.2189 51.653 85.3469 51.677 85.5229 51.701C85.7069 51.733 85.8829 51.749 86.0509 51.749C86.6109 51.749 87.0029 51.589 87.2269 51.269C87.4589 50.957 87.5749 50.565 87.5749 50.093V49.253H87.4789C87.3509 49.541 87.1269 49.809 86.8069 50.057C86.4869 50.305 86.0629 50.429 85.5349 50.429C85.0229 50.429 84.5789 50.297 84.2029 50.033C83.8269 49.761 83.5389 49.385 83.3389 48.905C83.1389 48.417 83.0389 47.857 83.0389 47.225C83.0389 46.577 83.1389 46.013 83.3389 45.533C83.5389 45.045 83.8269 44.669 84.2029 44.405C84.5869 44.133 85.0349 43.997 85.5469 43.997C86.0829 43.997 86.5109 44.129 86.8309 44.393C87.1509 44.649 87.3669 44.921 87.4789 45.209H87.5749V44.153H89.2429V50.093C89.2429 50.501 89.1669 50.933 89.0149 51.389C88.8709 51.853 88.5789 52.261 88.1389 52.613C87.6989 52.973 87.0749 53.153 86.2669 53.153ZM86.1589 49.085C86.6229 49.085 86.9749 48.897 87.2149 48.521C87.4549 48.145 87.5749 47.705 87.5749 47.201C87.5749 46.705 87.4549 46.273 87.2149 45.905C86.9829 45.529 86.6309 45.341 86.1589 45.341C85.6869 45.341 85.3309 45.529 85.0909 45.905C84.8509 46.273 84.7309 46.705 84.7309 47.201C84.7309 47.705 84.8469 48.145 85.0789 48.521C85.3189 48.897 85.6789 49.085 86.1589 49.085ZM96.4153 50.597C95.7433 50.597 95.1633 50.465 94.6753 50.201C94.1953 49.929 93.8313 49.581 93.5833 49.157C93.3353 48.733 93.2113 48.285 93.2113 47.813V47.741H95.0353V47.813C95.0353 48.013 95.0833 48.217 95.1793 48.425C95.2833 48.625 95.4393 48.793 95.6473 48.929C95.8633 49.065 96.1273 49.133 96.4393 49.133C96.8313 49.133 97.1473 49.033 97.3873 48.833C97.6353 48.633 97.7593 48.365 97.7593 48.029C97.7593 47.741 97.6553 47.513 97.4473 47.345C97.2473 47.169 96.9993 47.053 96.7033 46.997L95.6833 46.781C95.1553 46.677 94.6473 46.453 94.1593 46.109C93.6713 45.757 93.4273 45.185 93.4273 44.393C93.4273 43.881 93.5513 43.441 93.7993 43.073C94.0473 42.697 94.3913 42.413 94.8313 42.221C95.2713 42.021 95.7713 41.921 96.3313 41.921C96.9713 41.921 97.5193 42.045 97.9753 42.293C98.4393 42.541 98.7873 42.861 99.0193 43.253C99.2593 43.645 99.3793 44.061 99.3793 44.501V44.549H97.5553V44.513C97.5553 44.225 97.4513 43.957 97.2433 43.709C97.0433 43.453 96.7193 43.325 96.2713 43.325C95.9033 43.325 95.6153 43.425 95.4073 43.625C95.1993 43.817 95.0953 44.065 95.0953 44.369C95.0953 44.657 95.1993 44.885 95.4073 45.053C95.6233 45.221 95.8873 45.337 96.1993 45.401L97.2073 45.617C97.8233 45.753 98.3593 46.005 98.8153 46.373C99.2713 46.741 99.4993 47.281 99.4993 47.993C99.4993 48.505 99.3673 48.961 99.1033 49.361C98.8393 49.753 98.4713 50.057 97.9993 50.273C97.5353 50.489 97.0073 50.597 96.4153 50.597ZM103.454 50.585C102.79 50.585 102.23 50.433 101.774 50.129C101.318 49.817 100.978 49.413 100.754 48.917C100.538 48.413 100.43 47.873 100.43 47.297C100.43 46.721 100.538 46.185 100.754 45.689C100.978 45.185 101.318 44.777 101.774 44.465C102.23 44.153 102.794 43.997 103.465 43.997C104.354 43.997 105.058 44.281 105.578 44.849C106.106 45.417 106.37 46.237 106.37 47.309V47.765H102.026V47.861C102.026 48.245 102.158 48.577 102.422 48.857C102.686 49.129 103.018 49.265 103.418 49.265C103.73 49.265 103.994 49.193 104.21 49.049C104.426 48.905 104.582 48.709 104.678 48.461H106.31C106.142 49.085 105.814 49.597 105.326 49.997C104.838 50.389 104.214 50.585 103.454 50.585ZM104.774 46.685C104.758 46.181 104.63 45.809 104.39 45.569C104.15 45.329 103.834 45.209 103.442 45.209C103.026 45.209 102.698 45.341 102.458 45.605C102.218 45.869 102.09 46.229 102.074 46.685H104.774ZM107.584 44.153H109.228V45.161H109.312C109.416 44.881 109.608 44.645 109.888 44.453C110.168 44.253 110.528 44.153 110.968 44.153C111.136 44.153 111.28 44.169 111.4 44.201L111.328 45.725C111.128 45.669 110.916 45.641 110.692 45.641C110.196 45.641 109.828 45.773 109.588 46.037C109.348 46.293 109.228 46.721 109.228 47.321V50.489H107.584V44.153ZM112.283 44.153H113.855L115.367 48.809H115.439L116.927 44.153H118.499L116.387 50.489H114.383L112.283 44.153ZM119.599 44.153H121.255V50.489H119.599V44.153ZM120.415 43.061C120.151 43.061 119.931 42.973 119.755 42.797C119.579 42.613 119.491 42.393 119.491 42.137C119.491 41.873 119.579 41.653 119.755 41.477C119.931 41.301 120.151 41.213 120.415 41.213C120.679 41.213 120.899 41.305 121.075 41.489C121.251 41.665 121.339 41.881 121.339 42.137C121.339 42.393 121.251 42.613 121.075 42.797C120.899 42.973 120.679 43.061 120.415 43.061ZM125.661 50.597C124.989 50.597 124.425 50.441 123.969 50.129C123.513 49.817 123.173 49.409 122.949 48.905C122.733 48.401 122.625 47.861 122.625 47.285C122.625 46.717 122.733 46.185 122.949 45.689C123.173 45.185 123.513 44.777 123.969 44.465C124.425 44.153 124.989 43.997 125.661 43.997C126.509 43.997 127.177 44.241 127.665 44.729C128.161 45.209 128.461 45.817 128.565 46.553H126.945C126.889 46.193 126.753 45.905 126.537 45.689C126.329 45.465 126.041 45.353 125.673 45.353C125.185 45.353 124.825 45.541 124.593 45.917C124.369 46.293 124.257 46.749 124.257 47.285C124.257 47.837 124.369 48.301 124.593 48.677C124.825 49.053 125.185 49.241 125.673 49.241C126.033 49.241 126.321 49.133 126.537 48.917C126.753 48.693 126.889 48.401 126.945 48.041H128.565C128.461 48.777 128.161 49.389 127.665 49.877C127.177 50.357 126.509 50.597 125.661 50.597ZM132.528 50.585C131.864 50.585 131.304 50.433 130.848 50.129C130.392 49.817 130.052 49.413 129.828 48.917C129.612 48.413 129.504 47.873 129.504 47.297C129.504 46.721 129.612 46.185 129.828 45.689C130.052 45.185 130.392 44.777 130.848 44.465C131.304 44.153 131.868 43.997 132.54 43.997C133.428 43.997 134.132 44.281 134.652 44.849C135.18 45.417 135.444 46.237 135.444 47.309V47.765H131.1V47.861C131.1 48.245 131.232 48.577 131.496 48.857C131.76 49.129 132.092 49.265 132.492 49.265C132.804 49.265 133.068 49.193 133.284 49.049C133.5 48.905 133.656 48.709 133.752 48.461H135.384C135.216 49.085 134.888 49.597 134.4 49.997C133.912 50.389 133.288 50.585 132.528 50.585ZM133.848 46.685C133.832 46.181 133.704 45.809 133.464 45.569C133.224 45.329 132.908 45.209 132.516 45.209C132.1 45.209 131.772 45.341 131.532 45.605C131.292 45.869 131.164 46.229 131.148 46.685H133.848ZM138.962 50.585C138.426 50.585 137.962 50.485 137.57 50.285C137.186 50.085 136.894 49.825 136.694 49.505C136.494 49.177 136.394 48.833 136.394 48.473V48.401H138.014V48.473C138.014 48.689 138.098 48.881 138.266 49.049C138.434 49.217 138.678 49.301 138.998 49.301C139.262 49.301 139.474 49.241 139.634 49.121C139.802 48.993 139.886 48.821 139.886 48.605C139.886 48.413 139.814 48.261 139.67 48.149C139.526 48.037 139.346 47.965 139.13 47.933L138.41 47.789C137.938 47.701 137.51 47.513 137.126 47.225C136.742 46.937 136.55 46.501 136.55 45.917C136.55 45.317 136.77 44.849 137.21 44.513C137.65 44.169 138.214 43.997 138.902 43.997C139.406 43.997 139.842 44.089 140.21 44.273C140.578 44.457 140.858 44.701 141.05 45.005C141.242 45.301 141.338 45.621 141.338 45.965V46.013H139.718V45.977C139.718 45.785 139.646 45.609 139.502 45.449C139.358 45.281 139.138 45.197 138.842 45.197C138.594 45.197 138.394 45.261 138.242 45.389C138.09 45.517 138.014 45.685 138.014 45.893C138.014 46.085 138.09 46.237 138.242 46.349C138.402 46.461 138.598 46.537 138.83 46.577L139.622 46.733C140.134 46.845 140.566 47.049 140.918 47.345C141.27 47.633 141.446 48.045 141.446 48.581C141.446 48.981 141.338 49.333 141.122 49.637C140.906 49.941 140.606 50.177 140.222 50.345C139.846 50.505 139.426 50.585 138.962 50.585ZM148.149 50.597C147.477 50.597 146.913 50.441 146.457 50.129C146.001 49.817 145.661 49.409 145.437 48.905C145.221 48.401 145.113 47.861 145.113 47.285C145.113 46.717 145.221 46.185 145.437 45.689C145.661 45.185 146.001 44.777 146.457 44.465C146.913 44.153 147.477 43.997 148.149 43.997C148.997 43.997 149.665 44.241 150.153 44.729C150.649 45.209 150.949 45.817 151.053 46.553H149.433C149.377 46.193 149.241 45.905 149.025 45.689C148.817 45.465 148.529 45.353 148.161 45.353C147.673 45.353 147.313 45.541 147.081 45.917C146.857 46.293 146.745 46.749 146.745 47.285C146.745 47.837 146.857 48.301 147.081 48.677C147.313 49.053 147.673 49.241 148.161 49.241C148.521 49.241 148.809 49.133 149.025 48.917C149.241 48.693 149.377 48.401 149.433 48.041H151.053C150.949 48.777 150.649 49.389 150.153 49.877C149.665 50.357 148.997 50.597 148.149 50.597ZM155.016 50.585C154.352 50.585 153.792 50.437 153.336 50.141C152.888 49.837 152.552 49.437 152.328 48.941C152.104 48.445 151.992 47.901 151.992 47.309C151.992 46.717 152.1 46.173 152.316 45.677C152.54 45.173 152.88 44.769 153.336 44.465C153.792 44.161 154.352 44.009 155.016 44.009C155.68 44.009 156.24 44.161 156.696 44.465C157.152 44.761 157.492 45.157 157.716 45.653C157.94 46.149 158.052 46.693 158.052 47.285C158.052 47.877 157.94 48.425 157.716 48.929C157.492 49.425 157.152 49.825 156.696 50.129C156.24 50.433 155.68 50.585 155.016 50.585ZM155.016 49.241C155.48 49.241 155.828 49.057 156.06 48.689C156.3 48.313 156.42 47.845 156.42 47.285C156.42 46.725 156.3 46.265 156.06 45.905C155.828 45.537 155.48 45.353 155.016 45.353C154.552 45.353 154.204 45.537 153.972 45.905C153.74 46.265 153.624 46.725 153.624 47.285C153.624 47.845 153.74 48.313 153.972 48.689C154.212 49.057 154.56 49.241 155.016 49.241ZM159.227 44.153H160.895V45.173H160.979C161.067 44.949 161.251 44.697 161.531 44.417C161.811 44.137 162.219 43.997 162.755 43.997C163.171 43.997 163.519 44.093 163.799 44.285C164.079 44.477 164.283 44.681 164.411 44.897C164.547 45.105 164.627 45.257 164.651 45.353H164.735C164.831 45.097 165.031 44.809 165.335 44.489C165.639 44.161 166.107 43.997 166.739 43.997C167.291 43.997 167.727 44.141 168.047 44.429C168.375 44.709 168.603 45.049 168.731 45.449C168.867 45.841 168.935 46.221 168.935 46.589V50.489H167.267V46.757C167.267 46.325 167.155 45.997 166.931 45.773C166.707 45.549 166.435 45.437 166.115 45.437C165.787 45.437 165.503 45.553 165.263 45.785C165.031 46.017 164.915 46.341 164.915 46.757V50.489H163.247V46.757C163.247 46.325 163.135 45.997 162.911 45.773C162.687 45.549 162.415 45.437 162.095 45.437C161.767 45.437 161.483 45.553 161.243 45.785C161.011 46.017 160.895 46.341 160.895 46.757V50.489H159.227V44.153ZM174.044 50.585C173.508 50.585 173.088 50.461 172.784 50.213C172.48 49.965 172.256 49.693 172.112 49.397H172.016V52.985H170.348V44.153H172.016V45.137H172.112C172.24 44.865 172.456 44.609 172.76 44.369C173.064 44.121 173.488 43.997 174.032 43.997C174.84 43.997 175.46 44.297 175.892 44.897C176.332 45.497 176.552 46.301 176.552 47.309C176.552 48.293 176.332 49.085 175.892 49.685C175.46 50.285 174.844 50.585 174.044 50.585ZM173.444 49.265C173.924 49.265 174.28 49.073 174.512 48.689C174.752 48.305 174.872 47.841 174.872 47.297C174.872 46.769 174.752 46.317 174.512 45.941C174.28 45.557 173.924 45.365 173.444 45.365C172.972 45.365 172.616 45.557 172.376 45.941C172.136 46.325 172.016 46.781 172.016 47.309C172.016 47.845 172.136 48.305 172.376 48.689C172.616 49.073 172.972 49.265 173.444 49.265ZM180.033 50.585C179.249 50.585 178.637 50.285 178.197 49.685C177.757 49.085 177.537 48.293 177.537 47.309C177.537 46.309 177.757 45.509 178.197 44.909C178.645 44.301 179.269 43.997 180.069 43.997C180.605 43.997 181.025 44.121 181.329 44.369C181.633 44.609 181.849 44.865 181.977 45.137H182.073V44.153H183.741V50.489H182.073V49.397H181.977C181.833 49.693 181.609 49.965 181.305 50.213C181.001 50.461 180.577 50.585 180.033 50.585ZM180.645 49.241C181.117 49.241 181.473 49.049 181.713 48.665C181.953 48.281 182.073 47.821 182.073 47.285C182.073 46.749 181.953 46.293 181.713 45.917C181.481 45.541 181.125 45.353 180.645 45.353C180.165 45.353 179.809 45.541 179.577 45.917C179.345 46.293 179.229 46.749 179.229 47.285C179.229 47.829 179.345 48.293 179.577 48.677C179.809 49.053 180.165 49.241 180.645 49.241ZM185.196 44.153H186.876V45.125H186.96C187.104 44.813 187.336 44.549 187.656 44.333C187.976 44.109 188.364 43.997 188.82 43.997C189.644 43.997 190.224 44.261 190.56 44.789C190.904 45.317 191.076 45.917 191.076 46.589V50.489H189.42V46.865C189.42 46.401 189.308 46.037 189.084 45.773C188.868 45.509 188.56 45.377 188.16 45.377C187.736 45.377 187.416 45.517 187.2 45.797C186.984 46.069 186.876 46.425 186.876 46.865V50.489H185.196V44.153ZM195.298 51.389C195.186 51.685 195.066 51.945 194.938 52.169C194.81 52.401 194.582 52.625 194.254 52.841C193.934 53.057 193.51 53.165 192.982 53.165C192.758 53.165 192.566 53.145 192.406 53.105C192.246 53.073 192.146 53.053 192.106 53.045V51.881C192.234 51.913 192.406 51.929 192.622 51.929C192.886 51.929 193.098 51.885 193.258 51.797C193.418 51.709 193.546 51.593 193.642 51.449C193.738 51.305 193.834 51.105 193.93 50.849L194.134 50.345L191.854 44.153H193.534L194.902 48.509H194.974L196.414 44.153H198.094L195.298 51.389Z" fill="white"/>
</svg>
